<svg width="1319" height="642" viewBox="0 0 1319 642" fill="none" xmlns="http://www.w3.org/2000/svg">
<path d="M94.4 462V474.8H28V518.6H87.8V531.2H28V592H13V462H94.4ZM175.32 462V592H160.32V462H175.32ZM261.336 462L351.336 574.2L350.536 534.4V462H364.736V592H348.136L258.136 479L259.536 525V592H245.336V462H261.336ZM614.033 481.8C608.566 478.333 603.166 475.867 597.833 474.4C592.499 472.8 586.433 472 579.633 472C574.566 472 570.299 472.667 566.833 474C563.366 475.2 560.499 476.8 558.233 478.8C556.099 480.8 554.499 483.067 553.433 485.6C552.499 488 552.033 490.4 552.033 492.8C552.033 498.133 553.766 502.533 557.233 506C560.699 509.467 566.566 512.067 574.833 513.8L593.833 517.8C598.766 518.867 603.299 520.4 607.433 522.4C611.699 524.4 615.366 526.933 618.433 530C621.499 533.067 623.899 536.8 625.633 541.2C627.366 545.467 628.233 550.467 628.233 556.2C628.233 561.267 627.166 566.133 625.033 570.8C623.033 575.467 619.966 579.6 615.833 583.2C611.833 586.667 606.699 589.467 600.433 591.6C594.166 593.6 586.833 594.6 578.433 594.6C573.766 594.6 569.499 594.4 565.633 594C561.899 593.6 558.233 593 554.633 592.2C551.166 591.4 547.699 590.333 544.233 589C540.899 587.667 537.366 586 533.633 584L538.833 570.4C545.899 574.4 552.499 577.267 558.633 579C564.766 580.6 571.233 581.4 578.033 581.4C584.566 581.4 590.033 580.733 594.433 579.4C598.966 578.067 602.633 576.267 605.433 574C608.233 571.733 610.233 569.133 611.433 566.2C612.766 563.133 613.433 559.867 613.433 556.4C613.433 549.067 611.433 543.467 607.433 539.6C603.433 535.6 596.699 532.6 587.233 530.6L566.233 526.2C558.099 524.6 551.299 521.067 545.833 515.6C540.499 510.133 537.833 502.8 537.833 493.6C537.833 488.667 538.766 484.133 540.633 480C542.499 475.733 545.166 472.133 548.633 469.2C552.233 466.133 556.633 463.733 561.833 462C567.033 460.267 572.966 459.4 579.633 459.4C587.633 459.4 594.833 460.2 601.233 461.8C607.633 463.4 614.033 466.133 620.433 470L614.033 481.8ZM797.528 484.6C791.261 480.333 785.061 477.2 778.928 475.2C772.928 473.2 766.328 472.2 759.128 472.2C751.128 472.2 743.728 473.6 736.928 476.4C730.261 479.067 724.461 482.867 719.528 487.8C714.728 492.6 710.995 498.333 708.328 505C705.661 511.667 704.328 518.933 704.328 526.8C704.328 535.467 705.728 543.2 708.528 550C711.328 556.667 715.128 562.333 719.928 567C724.861 571.533 730.661 575 737.328 577.4C743.995 579.667 751.195 580.8 758.928 580.8C763.061 580.8 766.861 580.667 770.328 580.4C773.795 580 777.128 579.333 780.328 578.4C783.528 577.467 786.661 576.267 789.728 574.8C792.795 573.333 796.061 571.467 799.528 569.2L803.928 582.4C797.261 586.667 790.195 589.8 782.728 591.8C775.395 593.667 766.728 594.6 756.728 594.6C748.061 594.6 739.661 593.267 731.528 590.6C723.528 587.933 716.395 583.8 710.128 578.2C703.861 572.6 698.795 565.533 694.928 557C691.195 548.467 689.328 538.4 689.328 526.8C689.328 516.8 691.195 507.667 694.928 499.4C698.661 491 703.661 483.867 709.928 478C716.328 472.133 723.728 467.6 732.128 464.4C740.661 461.067 749.661 459.4 759.128 459.4C768.328 459.4 776.461 460.467 783.528 462.6C790.595 464.6 797.328 467.933 803.728 472.6L797.528 484.6ZM876.063 527C876.063 535.533 877.529 543.2 880.463 550C883.396 556.8 887.329 562.533 892.263 567.2C897.329 571.867 903.129 575.467 909.663 578C916.329 580.533 923.329 581.8 930.663 581.8C937.996 581.8 944.929 580.533 951.463 578C958.129 575.467 963.929 571.867 968.863 567.2C973.929 562.533 977.929 556.8 980.863 550C983.796 543.2 985.263 535.533 985.263 527C985.263 518.467 983.796 510.8 980.863 504C977.929 497.2 973.929 491.467 968.863 486.8C963.929 482.133 958.129 478.533 951.463 476C944.929 473.467 937.996 472.2 930.663 472.2C923.329 472.2 916.329 473.467 909.663 476C903.129 478.533 897.329 482.133 892.263 486.8C887.329 491.467 883.396 497.2 880.463 504C877.529 510.8 876.063 518.467 876.063 527ZM1000.26 527C1000.26 537.133 998.463 546.333 994.863 554.6C991.263 562.867 986.329 570 980.063 576C973.929 581.867 966.596 586.467 958.063 589.8C949.529 593 940.396 594.6 930.663 594.6C920.796 594.6 911.596 593 903.062 589.8C894.529 586.467 887.129 581.867 880.863 576C874.729 570 869.863 562.867 866.262 554.6C862.796 546.333 861.063 537.133 861.063 527C861.063 516.867 862.863 507.667 866.463 499.4C870.063 491.133 874.929 484.067 881.063 478.2C887.329 472.2 894.663 467.6 903.062 464.4C911.596 461.067 920.796 459.4 930.663 459.4C940.529 459.4 949.729 461.067 958.263 464.4C966.796 467.6 974.129 472.2 980.263 478.2C986.529 484.067 991.396 491.133 994.863 499.4C998.463 507.667 1000.26 516.867 1000.26 527ZM1109.34 462C1116.54 462 1123.2 462.933 1129.34 464.8C1135.47 466.533 1140.8 469.133 1145.34 472.6C1149.87 475.933 1153.4 480.067 1155.94 485C1158.6 489.933 1159.94 495.6 1159.94 502C1159.94 508.533 1158.67 514.333 1156.14 519.4C1153.6 524.467 1150.07 528.733 1145.54 532.2C1141 535.667 1135.67 538.333 1129.54 540.2C1123.4 541.933 1116.67 542.8 1109.34 542.8H1080.34V592H1065.34V462H1109.34ZM1080.34 529.8H1106.34C1118.87 529.8 1128.4 527.667 1134.94 523.4C1141.6 519.133 1144.94 512 1144.94 502C1144.94 492.8 1141.6 486 1134.94 481.6C1128.4 477.067 1118.87 474.8 1106.34 474.8H1080.34V529.8ZM1224.96 462H1306.36V474.8H1239.96V517.8H1299.76V530.6H1239.96V579H1309.36V592H1224.96V462Z" fill="white"/>
<rect x="418" y="10" width="96" height="282" stroke="white" stroke-width="10"/>
<line x1="413" y1="9" x2="666" y2="9" stroke="white" stroke-width="10"/>
<line x1="413" y1="47" x2="666" y2="47" stroke="white" stroke-width="10"/>
<g clip-path="url(#clip0_74_98)">
<path d="M846.931 117.676C890.165 163.803 883.729 229.176 863.338 265.037C856.06 277.833 851.691 287.633 841 294.001H859.914C861.486 292.321 863.028 290.558 864.529 288.65C888.343 258.4 896.432 223.525 893.399 185.248C890.716 151.483 872.397 125.744 852.106 101.623C828.522 73.5922 822.426 42.2845 831.856 7.99023H813.877C814.648 9.93983 814.768 12.4287 814.207 15.4983C806.76 55.8799 820.394 89.3653 846.921 117.666L846.931 117.676Z" fill="white"/>
<path d="M733.044 134.786C749.792 167.235 757.169 201.093 748.911 238.188C744.346 258.679 735.407 276.578 725.226 294.01H743.956C744.366 291.573 745.657 288.452 747.78 284.491C769.111 244.648 772.225 203.064 759.662 159.892C753.195 137.679 740.352 118.816 728.68 99.4549C714.445 75.8627 710.301 50.9638 717.569 24.219C719.581 16.8147 722.714 11.5155 727.289 8H709.811C695.976 36.5907 694.895 65.6999 709.58 94.6638C716.578 108.477 725.937 121.015 733.044 134.786Z" fill="white"/>
</g>
<path d="M709.827 8C712.065 3.12479 716.938 0 722.303 0H833.5L831.854 8H709.827V8Z" fill="white"/>
<path d="M725.269 294H859.91V294C856.225 299.617 849.959 303 843.241 303H720.5L725.269 294Z" fill="white"/>
<defs>
<clipPath id="clip0_74_98">
<rect width="195" height="286" fill="white" transform="translate(699 8)"/>
</clipPath>
</defs>
</svg>
